<svg width="50" height="50" viewBox="0 0 81 83" fill="none" xmlns="http://www.w3.org/2000/svg">
<ellipse cx="41.9292" cy="45.7501" rx="36.7947" ry="36.7947" fill="#F0F1F2"/>
<mask id="mask0_87359_28945" style="mask-type:alpha" maskUnits="userSpaceOnUse" x="0" y="0" width="81" height="83">
<path d="M78.7239 45.7501C78.7239 66.0712 62.2503 82.5448 41.9292 82.5448C21.608 82.5448 5.13449 66.0712 5.13449 45.7501C-11.1446 19.0863 21.608 0.4552 41.9292 0.4552C62.2503 0.4552 88.2213 20.8841 78.7239 45.7501Z" fill="#D9D9D9"/>
</mask>
<g mask="url(#mask0_87359_28945)">
<g filter="url(#filter0_d_87359_28945)">
<path d="M76.7425 42.1142C76.7425 55.289 76.7425 68.4456 76.7425 81.6203C76.1634 82.688 75.2947 82.9957 74.0822 82.9957C63.6944 82.9595 53.3067 82.9776 42.9189 82.9776C42.6475 82.9776 42.376 82.9595 42.1046 82.9595C42.1046 75.5397 42.1046 68.1017 42.1046 60.6819C50.2302 55.6328 58.3558 50.5656 66.4814 45.4984C66.7167 45.3536 67.0243 45.2631 67.151 44.9555C67.7301 44.7926 68.1644 44.3764 68.6712 44.1049C70.879 42.9467 72.6706 41.0465 75.2585 40.6122C75.8919 40.9922 76.3624 41.4989 76.7425 42.1142Z" fill="#E0A143"/>
<path d="M42.7741 13.7018C46.0135 16.2173 49.1081 18.9138 52.2751 21.5197C52.3837 21.6102 52.4561 21.7188 52.5466 21.8093C49.072 21.8093 45.5792 21.8093 42.1046 21.7912C42.1046 19.0947 42.1046 16.3983 42.1046 13.7018C42.3217 13.7018 42.557 13.7018 42.7741 13.7018Z" fill="#D9942D"/>
<path d="M42.1045 13.7018C42.1045 16.3983 42.1045 19.0947 42.1045 21.7912V21.8455C38.6299 21.8274 35.1552 21.8274 31.6987 21.8093C32.4768 20.9949 33.3817 20.3434 34.2504 19.6195C36.3496 17.8641 38.467 16.1087 40.5844 14.3714C40.892 14.118 41.2359 13.9189 41.5797 13.7018C41.7426 13.7018 41.9236 13.7018 42.1045 13.7018Z" fill="#E0A143"/>
<path d="M42.1045 82.9595C41.8512 82.9595 41.6159 82.9776 41.3625 82.9776C30.83 82.9776 20.2975 82.9776 9.78302 82.9776C8.22666 82.9776 7.46658 82.2176 7.46658 80.6612C7.46658 68.1923 7.48468 55.7234 7.44849 43.2544C7.44849 42.1143 7.82853 41.2999 8.80577 40.757C9.62014 40.6665 10.3259 40.9199 11.0317 41.3542C13.0224 42.621 15.0493 43.8516 17.0581 45.0822C17.1305 45.1365 17.2028 45.1908 17.2752 45.227C25.3828 50.2761 33.5084 55.3252 41.6159 60.3743C41.7607 60.4648 41.9416 60.5191 42.0864 60.5915V60.6458C42.1045 68.1018 42.1045 75.5216 42.1045 82.9595Z" fill="#E9AF58"/>
<path d="M42.1046 21.7913C45.5792 21.7913 49.072 21.8094 52.5466 21.8094C56.6185 21.8094 60.6904 21.8094 64.7622 21.8275C66.3548 21.8275 67.1329 22.5875 67.1329 24.162C67.1329 27.4014 67.151 30.6408 67.151 33.8801C67.151 37.572 67.151 41.2638 67.151 44.9556C67.0243 45.2633 66.7167 45.3356 66.4814 45.4985C58.3558 50.5657 50.2302 55.6148 42.1046 60.682V60.6277C42.1046 58.7456 42.1046 56.8635 42.0865 54.9995C42.7742 54.8004 43.2085 54.3661 43.1904 53.606C43.1723 52.864 42.738 52.4659 42.0865 52.2668C42.0865 51.2715 42.0865 50.2762 42.0865 49.2627C42.0865 49.2265 42.0865 49.1903 42.1046 49.1722C43.0999 49.1722 43.9324 48.7379 44.6925 48.1588C45.0906 47.8511 45.2716 47.8149 45.5973 48.2674C46.3393 49.317 47.407 49.878 48.71 49.8418C50.9179 49.7875 52.5647 48.7017 53.5239 46.7834C55.1345 43.5621 55.4965 40.1961 53.8858 36.8481C51.5151 31.9257 47.5337 29.4283 42.0865 29.2654C42.0865 26.8042 42.0865 24.3249 42.1046 21.8636V21.7913Z" fill="#B6BABF"/>
<path d="M67.151 44.9556C67.151 41.2638 67.151 37.5719 67.151 33.8801C69.8475 36.1242 72.562 38.3682 75.2585 40.6123C72.6706 41.0466 70.879 42.9649 68.6712 44.105C68.1644 44.3765 67.7301 44.7927 67.151 44.9556Z" fill="#D9942D"/>
<path d="M42.1045 54.9814C42.1045 56.8635 42.1045 58.7456 42.1226 60.6096C41.9597 60.5372 41.7969 60.4829 41.6521 60.3924C33.5446 55.3433 25.419 50.2942 17.3114 45.2451C17.239 45.1908 17.1667 45.1365 17.0943 45.1003C17.0943 41.3723 17.0762 37.6443 17.0762 33.9344C17.0762 30.6769 17.0943 27.4194 17.0943 24.1438C17.0943 22.6237 17.9086 21.8274 19.4288 21.8274C23.5188 21.8274 27.6087 21.8274 31.7168 21.8274C35.1914 21.8455 38.6661 21.8455 42.1226 21.8636C42.1226 24.3248 42.1226 26.8041 42.1045 29.2653L42.1226 29.3015C42.014 29.3015 41.9054 29.2834 41.7788 29.2834C36.983 29.573 33.2912 31.7446 30.9748 35.9432C28.6041 40.2503 28.6945 44.666 31.2643 48.8464C33.7074 52.8459 37.4174 54.8547 42.1226 54.9452L42.1045 54.9814Z" fill="#D2D5D9"/>
<path d="M17.0581 33.9163C17.0581 37.6443 17.0762 41.3723 17.0762 45.0823C15.0674 43.8517 13.0405 42.621 11.0499 41.3542C10.3441 40.9018 9.63828 40.6666 8.82391 40.757C11.5566 38.4768 14.3073 36.1966 17.0581 33.9163Z" fill="#E0A143"/>
<path d="M42.1046 29.2473C47.5518 29.4101 51.5332 31.9075 53.9039 36.83C55.5145 40.1779 55.1345 43.544 53.5419 46.7653C52.5828 48.6836 50.936 49.7694 48.7281 49.8237C47.407 49.8599 46.3574 49.2989 45.6154 48.2492C45.2896 47.7968 45.1087 47.833 44.7105 48.1407C43.9686 48.7379 43.118 49.1722 42.1227 49.1541C42.1227 48.2673 42.1227 47.3625 42.1227 46.4757C43.2266 46.0414 43.9324 45.2451 44.3305 44.1593C44.8191 42.8563 44.8553 41.5171 44.4753 40.1779C44.1314 38.9473 43.3895 38.0606 42.1227 37.7348C42.1227 36.83 42.1407 35.9432 42.1407 35.0383C43.0637 35.0021 43.86 35.4184 44.7105 35.8527C44.7467 35.7079 44.7648 35.5993 44.7829 35.4908C44.9458 34.604 45.543 34.0792 46.2669 34.1516C47.027 34.224 47.5337 34.8393 47.5337 35.726C47.5337 38.8387 47.4975 41.9514 47.4975 45.0642C47.4975 45.3718 47.4975 45.6976 47.5518 46.0052C47.6966 46.8015 48.2757 47.1815 49.072 47.0548C49.9587 46.9101 50.6283 46.4395 51.0445 45.6614C51.9494 43.9602 52.4199 42.1143 52.0942 40.196C51.3341 35.4546 46.9184 31.8713 42.1227 31.998L42.1407 31.9618C42.1407 31.0751 42.1407 30.1883 42.1407 29.2834L42.1046 29.2473Z" fill="#565656"/>
<path d="M42.0864 49.2445C42.0864 50.2399 42.0864 51.2352 42.0864 52.2487L42.1045 52.2848C41.6159 52.2306 41.1273 52.1944 40.6206 52.122C35.1914 51.3981 31.1738 45.8785 32.1511 40.4855C33.056 35.4907 36.8564 32.2151 42.1045 31.9437L42.0864 31.9799C42.0864 32.9752 42.0864 33.9524 42.0864 34.9478C40.6929 35.0021 39.3719 35.2735 38.2317 36.1422C36.5849 37.3909 35.7524 39.0739 35.5172 41.0827C35.0828 44.7926 37.3993 49.4255 42.0864 49.2445Z" fill="#D2D5D9"/>
<path d="M42.0865 49.2445C37.3812 49.4255 35.0829 44.7926 35.5172 41.0646C35.7525 39.0558 36.5849 37.3728 38.2318 36.1241C39.3719 35.2554 40.693 34.984 42.0865 34.9297C42.0865 34.9659 42.1046 34.984 42.1046 35.0202C42.1046 35.925 42.0865 36.8118 42.0865 37.7166C42.0865 37.7347 42.0865 37.7709 42.0865 37.789C40.9463 37.5176 40.0596 37.9881 39.3176 38.7663C37.5984 40.5941 37.8155 44.1773 39.7157 45.788C40.4034 46.3671 41.1635 46.6928 42.0865 46.3852L42.0684 46.4576C42.0684 47.3443 42.0684 48.2492 42.0684 49.1359C42.1046 49.1902 42.0865 49.2264 42.0865 49.2445Z" fill="#6A6A6A"/>
<path d="M42.1046 52.2487C42.7741 52.4478 43.2085 52.8459 43.2085 53.5879C43.2266 54.348 42.7922 54.7823 42.1046 54.9814L42.1227 54.9452C42.1227 54.0584 42.1227 53.1717 42.1227 52.303L42.1046 52.2487Z" fill="#565656"/>
<path d="M42.1226 52.2849C42.1226 53.1716 42.1226 54.0584 42.1226 54.9271C37.4173 54.8366 33.7255 52.8278 31.2643 48.8283C28.6945 44.6479 28.604 40.2322 30.9748 35.9251C33.2912 31.7084 36.983 29.5549 41.7787 29.2653C41.8873 29.2653 41.9959 29.2653 42.1226 29.2834C42.1226 30.1702 42.1226 31.0569 42.1226 31.9618C36.8925 32.2513 33.074 35.5088 32.1692 40.5036C31.1919 45.8966 35.2095 51.4162 40.6386 52.1401C41.1273 52.1944 41.6159 52.2306 42.1226 52.2849Z" fill="#6A6A6A"/>
<path d="M42.1227 35.0383C42.1227 35.0021 42.1227 34.984 42.1046 34.9478C42.1046 33.9525 42.1046 32.9752 42.1046 31.9799C46.9003 31.8532 51.316 35.4545 52.0761 40.1779C52.3837 42.0962 51.9313 43.9421 51.0264 45.6432C50.6102 46.4033 49.9406 46.8919 49.0539 47.0367C48.2576 47.1634 47.6785 46.7833 47.5337 45.9871C47.4794 45.6794 47.4794 45.3537 47.4794 45.046C47.4975 41.9333 47.5156 38.8206 47.5156 35.7079C47.5156 34.8211 47.0089 34.2058 46.2488 34.1334C45.5249 34.061 44.9277 34.5859 44.7648 35.4726C44.7467 35.5812 44.7286 35.6898 44.6924 35.8346C43.8419 35.4183 43.0456 35.0021 42.1227 35.0383Z" fill="#B6BABF"/>
<path d="M42.1046 37.7348C43.3894 38.0786 44.1133 38.9654 44.4572 40.1779C44.8372 41.5171 44.801 42.8382 44.3124 44.1593C43.8962 45.2451 43.2085 46.0595 42.1046 46.4757L42.1227 46.4033C42.1227 43.5259 42.1227 40.6665 42.1227 37.7891C42.1046 37.771 42.1046 37.7529 42.1046 37.7348Z" fill="#B6BABF"/>
<path d="M42.1046 37.8071C42.1046 40.6846 42.1046 43.5439 42.1046 46.4214C41.1816 46.7109 40.4216 46.3852 39.7339 45.8242C37.8337 44.2135 37.6165 40.6303 39.3357 38.8025C40.0777 38.0062 40.9645 37.5176 42.1046 37.8071Z" fill="#D2D5D9"/>
</g>
</g>
<defs>
<filter id="filter0_d_87359_28945" x="4.44849" y="11.7018" width="75.294" height="75.2939" filterUnits="userSpaceOnUse" color-interpolation-filters="sRGB">
<feFlood flood-opacity="0" result="BackgroundImageFix"/>
<feColorMatrix in="SourceAlpha" type="matrix" values="0 0 0 0 0 0 0 0 0 0 0 0 0 0 0 0 0 0 127 0" result="hardAlpha"/>
<feOffset dy="1"/>
<feGaussianBlur stdDeviation="1.5"/>
<feComposite in2="hardAlpha" operator="out"/>
<feColorMatrix type="matrix" values="0 0 0 0 0 0 0 0 0 0 0 0 0 0 0 0 0 0 0.2 0"/>
<feBlend mode="normal" in2="BackgroundImageFix" result="effect1_dropShadow_87359_28945"/>
<feBlend mode="normal" in="SourceGraphic" in2="effect1_dropShadow_87359_28945" result="shape"/>
</filter>
</defs>
</svg>
