<svg width="50" height="50" viewBox="0 0 80 83" fill="none" xmlns="http://www.w3.org/2000/svg">
<ellipse cx="41.1856" cy="46.0788" rx="36.7947" ry="36.7947" fill="#F0F1F2"/>
<mask id="mask0_87359_29812" style="mask-type:alpha" maskUnits="userSpaceOnUse" x="0" y="0" width="80" height="83">
<path d="M77.9803 46.0788C77.9803 66.3999 61.5067 82.8734 41.1856 82.8734C20.8644 82.8734 4.3909 66.3999 4.3909 46.0788C-11.8882 19.415 20.8644 0.783875 41.1856 0.783875C61.5067 0.783875 87.4777 21.2128 77.9803 46.0788Z" fill="#D9D9D9"/>
</mask>
<g mask="url(#mask0_87359_29812)">
<g clip-path="url(#clip0_87359_29812)" filter="url(#filter0_d_87359_29812)">
<path d="M40.9312 17.0687C51.4156 17.0687 61.9 17.0687 72.3843 17.0687C73.45 17.55 73.8109 18.375 73.8109 19.5265C73.7937 39.8422 73.7937 60.1578 73.8109 80.4734C73.8109 81.625 73.45 82.4672 72.3843 82.9312C61.9 82.9312 51.4156 82.9312 40.9312 82.9312C40.9312 80.3187 40.9312 77.7062 40.9312 75.0765C43.5437 75.0765 46.139 75.0765 48.7515 75.0765C52.4984 75.0765 56.2281 75.0765 59.975 75.0765C61.2125 75.0765 62.1062 74.2687 62.1234 73.1687C62.1406 72.0687 61.2297 71.2094 60.0437 71.2094C53.6672 71.2094 47.3078 71.2094 40.9312 71.2094C40.9312 67.3422 40.9312 63.4922 40.9312 59.625C43.5437 59.625 46.139 59.625 48.7515 59.625C52.4984 59.625 56.2281 59.625 59.975 59.625C61.2125 59.625 62.1062 58.8172 62.1234 57.7172C62.1406 56.6172 61.2297 55.7578 60.0437 55.7578C53.6672 55.7578 47.3078 55.7578 40.9312 55.7578C40.9312 50.6187 40.9312 45.4797 40.9312 40.3578V40.3062C41.8422 40.1515 42.2203 40.6328 42.4093 41.4406C42.5125 41.8875 42.7187 42.3344 42.8906 42.764C43.3375 43.9156 44.4031 44.4656 45.4343 44.1047C46.5 43.7265 46.9984 42.575 46.5687 41.4062C44.7468 36.5078 42.8906 31.6094 41.0515 26.6937C41.0172 26.5219 40.9656 26.3672 40.9312 26.1953C40.914 23.1875 40.9312 20.1281 40.9312 17.0687ZM50.5562 34.514C50.5562 35.2187 50.5562 35.9234 50.5562 36.6281C50.5906 42.1109 56.4859 45.8578 61.4359 43.5031C61.9687 43.2453 62.2953 43.2109 62.7422 43.675C63.4468 44.3969 64.4953 44.3797 65.2515 43.7781C65.9562 43.2109 66.3172 42.0594 65.7156 41.4234C64.8734 40.5469 65.0968 39.8078 65.5609 38.9656C65.5781 38.9484 65.5781 38.9312 65.5781 38.8969C66.2484 36.3875 66.1281 33.8265 65.8187 31.3172C65.389 27.8797 62.3297 25.1812 58.9265 24.9234C55.4203 24.6484 52.1547 26.814 50.9859 30.114C50.4531 31.575 50.5734 33.0359 50.5562 34.514Z" fill="#B6BABF"/>
<path d="M40.9312 40.3922C40.9312 45.5312 40.9312 50.6703 40.9312 55.7921C39.9344 55.7921 38.9203 55.7921 37.9234 55.7921C31.289 55.7921 24.6719 55.7921 18.0375 55.7921C17.3156 55.7921 16.6797 55.9984 16.2672 56.6171C15.7859 57.3218 15.7687 58.0437 16.2328 58.7828C16.6625 59.4531 17.2812 59.6593 18.0375 59.6593C25.6687 59.6593 33.3 59.6593 40.9312 59.6593C40.9312 63.5265 40.9312 67.3765 40.9312 71.2437C39.9344 71.2437 38.9203 71.2437 37.9234 71.2437C31.289 71.2437 24.6719 71.2437 18.0375 71.2437C17.3156 71.2437 16.6797 71.45 16.2672 72.0687C15.7859 72.7734 15.7687 73.4953 16.2328 74.2343C16.6625 74.9047 17.2812 75.1109 18.0375 75.1109C25.6687 75.1109 33.3 75.1109 40.9312 75.1109C40.9312 77.7234 40.9312 80.3359 40.9312 82.9656C30.3609 82.9656 19.7906 82.9656 9.22029 82.9656C8.87654 82.5359 8.49841 82.1406 8.06873 81.814C8.06873 60.6218 8.06873 39.4468 8.06873 18.2547C8.49841 17.9453 8.85935 17.5843 9.09998 17.1031C19.7219 17.1031 30.3265 17.1031 40.9484 17.1031C40.9484 20.1625 40.9484 23.2218 40.9484 26.2812C40.45 25.3703 39.7109 24.9578 38.6797 25.0953C37.6484 25.2328 37.2875 25.989 36.9609 26.8484C35.1562 31.7297 33.3344 36.5937 31.5125 41.4578C31.0828 42.5921 31.5297 43.7265 32.5609 44.1218C33.5922 44.5172 34.7094 43.9843 35.139 42.8671C35.3969 42.1968 35.6375 41.5093 35.8781 40.8046C35.964 40.5296 36.0844 40.375 36.4109 40.375C37.889 40.375 39.4015 40.375 40.9312 40.3922ZM15.889 34.5312C15.889 37.0578 15.889 39.5843 15.889 42.1281C15.889 43.3828 16.6797 44.225 17.814 44.225C18.9484 44.225 19.7219 43.3656 19.739 42.1109C19.739 40.4781 19.7562 38.8453 19.7218 37.2297C19.7047 36.6797 19.8422 36.4906 20.4265 36.5078C22.6953 36.5422 24.964 36.525 27.2328 36.525C28.5047 36.525 29.3469 35.7687 29.364 34.6172C29.3812 33.4484 28.5219 32.6578 27.2328 32.6578C24.9468 32.6578 22.6609 32.6406 20.3578 32.6578C19.8937 32.6578 19.7047 32.5547 19.7218 32.0562C19.7562 31.1797 19.7562 30.3031 19.7218 29.4265C19.6875 28.8937 19.8937 28.7906 20.3922 28.7906C22.6781 28.8078 24.964 28.8078 27.2672 28.7906C28.5219 28.7906 29.364 28.0172 29.3812 26.8656C29.3812 25.714 28.539 24.9406 27.2843 24.9234C24.2078 24.9234 21.114 24.9234 18.0375 24.9234C16.6625 24.9234 15.9062 25.6797 15.9062 27.0718C15.889 29.564 15.889 32.039 15.889 34.5312ZM27.3703 51.9422C30.6015 51.9422 33.8328 51.9422 37.064 51.9422C38.0953 51.9422 38.989 51.0484 39.0062 50.0343C39.0062 49.0203 38.1297 48.0921 37.0984 48.0921C30.6531 48.0921 24.225 48.075 17.7797 48.0921C17.1437 48.0921 16.5594 48.35 16.2328 48.9515C15.3734 50.4468 16.2672 51.9422 18.0031 51.9422C21.1312 51.9422 24.2593 51.9422 27.3703 51.9422ZM27.4219 67.3765C30.5844 67.3765 33.7469 67.3765 36.9094 67.3765C38.0781 67.3765 38.9719 66.5515 38.989 65.4687C39.0062 64.3515 38.1125 63.5093 36.9094 63.5093C35.0703 63.5093 33.2312 63.5093 31.3922 63.5093C26.9062 63.5093 22.4031 63.5093 17.9172 63.5093C17.2125 63.5093 16.5937 63.7328 16.2328 64.3687C15.3562 65.864 16.25 67.3765 17.9859 67.3765C21.1484 67.3765 24.2765 67.3765 27.4219 67.3765Z" fill="#D2D5D9"/>
<path d="M8.07373 81.6536C8.50342 81.9973 9.17398 82.513 9.51773 82.9427C9.1396 82.9427 8.3002 83.0607 8.11114 82.8716C7.93926 82.6826 8.07373 82.0489 8.07373 81.6536Z" fill="#D2D5D9"/>
<path d="M9.09998 17.1031C8.87654 17.6015 8.49841 17.9453 8.06873 18.2718C8.06873 18.2375 8.06873 18.1859 8.06873 18.1515C8.06873 17.1031 8.06873 17.1031 9.09998 17.1031Z" fill="#D2D5D9"/>
<path d="M50.5563 34.514C50.5734 33.0359 50.4531 31.575 50.9688 30.1312C52.1375 26.8312 55.4031 24.6656 58.9094 24.9406C62.3125 25.1984 65.3719 27.8968 65.8016 31.3343C66.1281 33.8437 66.2484 36.4047 65.5609 38.914C65.5609 38.9312 65.5609 38.9656 65.5437 38.9828C65.0797 39.825 64.8563 40.564 65.6984 41.4406C66.3 42.0765 65.9563 43.2109 65.2344 43.7953C64.4781 44.414 63.4297 44.4312 62.725 43.6922C62.2781 43.2281 61.9516 43.2625 61.4187 43.5203C56.4687 45.875 50.5734 42.1281 50.5391 36.6453C50.5563 35.9234 50.5563 35.2187 50.5563 34.514ZM59.1328 40.1687C58.9266 39.8937 58.7375 39.6875 58.5828 39.464C58.0328 38.6218 58.1875 37.6937 58.9609 36.989C59.6828 36.3359 60.6453 36.3531 61.4016 36.989C61.5563 37.1265 61.6938 37.4187 61.9 37.3328C62.1406 37.2125 62.1062 36.8859 62.1062 36.6453C62.1062 35.3047 62.1234 33.9468 62.1062 32.6062C62.0719 30.475 60.3359 28.7906 58.2219 28.8078C56.125 28.7906 54.4234 30.5093 54.4063 32.6406C54.4063 33.9297 54.4063 35.2015 54.4063 36.4906C54.4063 37.4015 54.7156 38.2093 55.2656 38.914C56.1766 40.1 57.9469 40.6672 59.1328 40.1687Z" fill="#5BA7B1"/>
<path d="M40.9312 40.3922C39.4187 40.375 37.8891 40.375 36.3766 40.3578C36.05 40.3578 35.9297 40.5125 35.8437 40.7875C35.6031 41.475 35.3797 42.1625 35.1047 42.85C34.675 43.9672 33.5406 44.5 32.5266 44.1047C31.4953 43.7094 31.0484 42.575 31.4781 41.4406C33.3 36.5766 35.1391 31.7125 36.9266 26.8313C37.2531 25.9547 37.6141 25.2156 38.6453 25.0781C39.6766 24.9406 40.4328 25.3531 40.9141 26.2641C40.9484 26.4359 41 26.5906 41.0344 26.7625C40.8453 26.9516 40.9141 27.2094 40.9141 27.4328C40.9141 31.7469 40.9141 36.0438 40.9141 40.3578L40.9312 40.3922ZM39.075 32.5547C39.0234 32.5547 38.9719 32.5547 38.9031 32.5547C38.4562 33.775 37.9922 35.0125 37.5453 36.2328C37.4594 36.4563 37.5969 36.4906 37.7687 36.4906C38.5766 36.4906 39.3844 36.4906 40.2094 36.4906C40.4328 36.4906 40.5187 36.4047 40.4328 36.1813C40.3297 35.9406 40.2609 35.7 40.1578 35.4594C39.7969 34.4969 39.4359 33.5344 39.075 32.5547Z" fill="#7FBEC6"/>
<path d="M40.9312 55.7922C47.3078 55.7922 53.6672 55.7922 60.0437 55.7922C61.2297 55.7922 62.1406 56.6516 62.1234 57.7516C62.1062 58.8516 61.2125 59.6422 59.975 59.6594C56.2281 59.6594 52.4984 59.6594 48.7516 59.6594C46.1391 59.6594 43.5437 59.6594 40.9312 59.6594C40.9312 58.3703 40.9312 57.0812 40.9312 55.7922Z" fill="#9FA5AB"/>
<path d="M40.9312 71.2437C47.3078 71.2437 53.6672 71.2437 60.0437 71.2437C61.2297 71.2437 62.1406 72.1031 62.1234 73.2031C62.1062 74.3031 61.2125 75.0937 59.975 75.1109C56.2281 75.1109 52.4984 75.1109 48.7516 75.1109C46.1391 75.1109 43.5437 75.1109 40.9312 75.1109C40.9312 73.8047 40.9312 72.5156 40.9312 71.2437Z" fill="#9FA5AB"/>
<path d="M40.9312 40.3406C40.9312 36.0266 40.9312 31.7297 40.9312 27.4156C40.9312 27.1922 40.8453 26.9344 41.0516 26.7453C42.8906 31.6437 44.7297 36.5422 46.5687 41.4578C46.9984 42.6266 46.5 43.7781 45.4344 44.1562C44.3859 44.5344 43.3375 43.9672 42.8906 42.8156C42.7187 42.3687 42.5125 41.9391 42.4094 41.4922C42.2203 40.65 41.8422 40.1687 40.9312 40.3406Z" fill="#5BA7B1"/>
<path d="M15.8891 34.5312C15.8891 32.039 15.8891 29.564 15.8891 27.0718C15.8891 25.6968 16.6453 24.9234 18.0203 24.9234C21.0969 24.9234 24.1906 24.9234 27.2672 24.9234C28.5219 24.9234 29.3641 25.714 29.3641 26.8656C29.3641 28.0172 28.5219 28.7906 27.25 28.7906C24.9641 28.7906 22.6781 28.8078 20.375 28.7906C19.8938 28.7906 19.6875 28.8937 19.7047 29.4265C19.7563 30.3031 19.7391 31.1797 19.7047 32.0562C19.6875 32.5547 19.8766 32.6578 20.3406 32.6578C22.6266 32.6406 24.9125 32.6406 27.2156 32.6578C28.5219 32.6578 29.3641 33.4484 29.3469 34.6172C29.3297 35.7515 28.4875 36.525 27.2156 36.525C24.9469 36.525 22.6781 36.5422 20.4094 36.5078C19.825 36.4906 19.6875 36.6797 19.7047 37.2297C19.7391 38.8625 19.7219 40.4953 19.7219 42.1109C19.7219 43.3656 18.9485 44.225 17.7969 44.225C16.6453 44.225 15.8719 43.3828 15.8719 42.1281C15.8891 39.5843 15.8891 37.0578 15.8891 34.5312Z" fill="#7FBEC6"/>
<path d="M40.9313 55.7922C40.9313 57.0812 40.9313 58.3703 40.9313 59.6594C33.3 59.6594 25.6688 59.6594 18.0375 59.6594C17.2813 59.6594 16.6625 59.4531 16.2328 58.7828C15.7688 58.0437 15.786 57.3219 16.2672 56.6172C16.6969 55.9984 17.3156 55.7922 18.0375 55.7922C24.6719 55.7922 31.2891 55.7922 37.9235 55.7922C38.9203 55.7922 39.9172 55.7922 40.9313 55.7922Z" fill="#B6BABF"/>
<path d="M40.9313 71.2437C40.9313 72.5328 40.9313 73.8218 40.9313 75.1109C33.3 75.1109 25.6688 75.1109 18.0375 75.1109C17.2813 75.1109 16.6625 74.9046 16.2328 74.2343C15.7688 73.4953 15.786 72.7734 16.2672 72.0687C16.6969 71.45 17.3156 71.2437 18.0375 71.2437C24.6719 71.2437 31.2891 71.2437 37.9235 71.2437C38.9203 71.2437 39.9172 71.2437 40.9313 71.2437Z" fill="#B6BABF"/>
<path d="M27.3703 51.9422C24.2422 51.9422 21.1313 51.9422 18.0031 51.9422C16.25 51.9422 15.3563 50.4469 16.2328 48.9516C16.5766 48.3672 17.1438 48.0922 17.7797 48.0922C24.225 48.075 30.6531 48.075 37.0985 48.0922C38.1125 48.0922 39.0063 49.0375 39.0063 50.0344C39.0063 51.0484 38.1125 51.9422 37.0641 51.9422C33.8328 51.9422 30.6016 51.9422 27.3703 51.9422Z" fill="#B6BABF"/>
<path d="M27.4219 67.3765C24.2765 67.3765 21.1312 67.3765 17.9859 67.3765C16.25 67.3765 15.3562 65.864 16.2328 64.3687C16.5937 63.75 17.2125 63.5093 17.9172 63.5093C22.4031 63.5093 26.9062 63.5093 31.3922 63.5093C33.2312 63.5093 35.0703 63.5093 36.9093 63.5093C38.1125 63.5093 39.0062 64.3515 38.989 65.4687C38.9718 66.5515 38.0781 67.3765 36.9093 67.3765C33.764 67.3765 30.6015 67.3765 27.4219 67.3765Z" fill="#B6BABF"/>
<path d="M59.1328 40.1687C57.9469 40.6843 56.1938 40.1 55.2656 38.9312C54.7156 38.2265 54.4062 37.4187 54.4062 36.5078C54.4062 35.2187 54.4062 33.9468 54.4062 32.6578C54.4234 30.5265 56.125 28.8078 58.2219 28.7906C60.3359 28.7734 62.0719 30.475 62.1062 32.589C62.1234 33.9297 62.1062 35.2875 62.1062 36.6281C62.1062 36.8859 62.1578 37.2125 61.9 37.3156C61.6938 37.4187 61.5563 37.1093 61.4016 36.9718C60.6453 36.3187 59.6828 36.3187 58.9609 36.9718C58.1703 37.6765 58.0328 38.6047 58.5828 39.4468C58.7375 39.6875 58.9266 39.8937 59.1328 40.1687Z" fill="#B6BABF"/>
<path d="M39.075 32.5547C39.4359 33.5172 39.7969 34.4969 40.1578 35.4594C40.2438 35.7 40.3297 35.9406 40.4328 36.1812C40.5188 36.4219 40.4328 36.4906 40.2094 36.4906C39.4016 36.4906 38.5938 36.4906 37.7688 36.4906C37.5969 36.4906 37.4594 36.4391 37.5453 36.2328C37.9922 35.0125 38.4563 33.775 38.9031 32.5547C38.9719 32.5547 39.0234 32.5547 39.075 32.5547Z" fill="#D2D5D9"/>
</g>
</g>
<defs>
<filter id="filter0_d_87359_29812" x="5" y="15" width="72" height="72" filterUnits="userSpaceOnUse" color-interpolation-filters="sRGB">
<feFlood flood-opacity="0" result="BackgroundImageFix"/>
<feColorMatrix in="SourceAlpha" type="matrix" values="0 0 0 0 0 0 0 0 0 0 0 0 0 0 0 0 0 0 127 0" result="hardAlpha"/>
<feOffset dy="1"/>
<feGaussianBlur stdDeviation="1.5"/>
<feComposite in2="hardAlpha" operator="out"/>
<feColorMatrix type="matrix" values="0 0 0 0 0 0 0 0 0 0 0 0 0 0 0 0 0 0 0.2 0"/>
<feBlend mode="normal" in2="BackgroundImageFix" result="effect1_dropShadow_87359_29812"/>
<feBlend mode="normal" in="SourceGraphic" in2="effect1_dropShadow_87359_29812" result="shape"/>
</filter>
<clipPath id="clip0_87359_29812">
<rect width="66" height="66" fill="white" transform="translate(8 17)"/>
</clipPath>
</defs>
</svg>
