<svg width="50" height="50" viewBox="0 0 83 83" fill="none" xmlns="http://www.w3.org/2000/svg">
<ellipse cx="41.1856" cy="46.0788" rx="36.7947" ry="36.7947" fill="#F0F1F2"/>
<mask id="mask0_87359_30696" style="mask-type:alpha" maskUnits="userSpaceOnUse" x="-4" y="0" width="93" height="83">
<path d="M77.9803 46.0788C77.9803 66.3999 61.5067 82.8734 41.1856 82.8734C20.8644 82.8734 4.39089 66.3999 4.39089 46.0788C-11.8882 19.415 -2.49205 0.783875 41.1856 0.783875C61.5067 0.783875 109.602 0.783875 77.9803 46.0788Z" fill="#D9D9D9"/>
</mask>
<g mask="url(#mask0_87359_30696)">
<g clip-path="url(#clip0_87359_30696)" filter="url(#filter0_d_87359_30696)">
<path d="M78.6091 16.5373C79.3724 17.1764 79.6268 18.1264 79.983 19.0073C79.983 19.6464 79.983 20.3028 79.983 20.9419C79.542 22.531 78.4395 23.6365 77.3199 24.7592C73.4186 28.6975 69.5511 32.6702 65.6668 36.6258C65.4462 36.8503 65.2257 37.0921 65.0052 37.3167C63.4277 38.9058 61.8672 40.4949 60.2897 42.084C58.5595 43.8286 56.8463 45.5559 55.1161 47.3004C54.0136 46.0913 52.8771 44.9168 51.6728 43.8113C51.6728 43.7768 51.6728 43.7422 51.6558 43.6904C51.995 43.6559 52.1477 43.3622 52.3512 43.1549C60.9003 34.4666 69.4324 25.7611 77.9815 17.0728C78.202 16.9 78.4055 16.7273 78.6091 16.5373Z" fill="#3C8B96"/>
<path d="M15.1357 64.7634C14.9322 63.3988 15.017 62.017 15.017 60.6352C15.017 52.9314 15.017 45.2104 15.017 37.5067C15.017 34.1212 17.0864 31.5993 20.3601 30.9775C20.5467 30.9429 20.7333 30.9084 20.9199 30.9084C27.3317 30.9084 33.7435 30.9084 40.1383 30.9084C40.1383 33.9484 40.1383 36.9885 40.1383 40.0112C40.1383 40.8403 40.1383 40.8403 39.3072 40.8403C34.3372 40.8403 29.3672 40.8403 24.3972 40.8231C23.9053 40.8231 23.7357 40.9613 23.7526 41.4794C23.7865 42.3431 23.7865 43.2067 23.7526 44.0704C23.7357 44.5713 23.8714 44.744 24.3802 44.7268C25.9408 44.6922 27.5013 44.7095 29.0788 44.7095C32.5052 44.7095 35.9316 44.7268 39.358 44.6922C39.9517 44.6922 40.2062 44.8131 40.1383 45.4695C40.0874 45.9877 40.1214 46.5059 40.1214 47.0241C40.1214 48.3368 40.1214 48.3368 38.8153 48.3368C34.0149 48.3368 29.2145 48.3368 24.4142 48.3195C23.8883 48.3195 23.7017 48.4577 23.7357 49.0105C23.7865 49.805 23.7865 50.5996 23.7357 51.3941C23.6848 52.0332 23.8544 52.2232 24.5329 52.2232C29.452 52.1887 34.3881 52.2059 39.3072 52.2059C40.1214 52.2059 40.0874 52.206 40.1214 53.0523C40.1553 53.9333 39.9857 54.8142 40.2401 55.6778C40.1892 55.7296 40.1553 55.7642 40.1044 55.816C39.833 55.816 39.5616 55.8333 39.2732 55.8333C34.3032 55.8333 29.3333 55.8333 24.3633 55.816C23.8714 55.816 23.7017 55.9542 23.7187 56.4724C23.7526 57.336 23.7526 58.1997 23.7187 59.0633C23.7017 59.5642 23.8374 59.737 24.3463 59.737C26.1782 59.7024 28.0272 59.7197 29.8591 59.7197C33.2685 59.7197 36.661 59.737 40.0705 59.737C40.0705 64.487 40.0874 69.2371 40.0874 73.9872C40.0874 74.229 39.9857 74.5053 40.2231 74.7126C37.4074 76.7163 34.5916 78.7372 31.7589 80.7409C31.6062 80.8445 31.4536 81.0691 31.267 80.9827C31.0804 80.8963 31.1652 80.6372 31.1652 80.4645C31.1652 77.1308 31.1482 73.7972 31.1652 70.4635C31.1652 69.8762 31.0295 69.6862 30.4358 69.7035C27.6201 69.738 24.8043 69.6689 22.0055 69.738C20.2075 69.7726 18.5791 69.3925 17.1373 68.2525C16.8659 67.9762 16.6114 67.7171 16.34 67.4407C16.1026 67.078 15.8481 66.698 15.6107 66.3352C15.5428 66.1625 15.475 65.9898 15.4071 65.817C15.3732 65.4543 15.2544 65.1089 15.1357 64.7634Z" fill="#E9AF58"/>
<path d="M40.2571 55.7124C40.0026 54.8487 40.1722 53.9678 40.1383 53.0869C40.1044 52.2405 40.1383 52.2405 39.3241 52.2405C34.405 52.2405 29.469 52.2232 24.5499 52.2578C23.8883 52.2578 23.7187 52.0678 23.7526 51.4287C23.8035 50.6341 23.8035 49.8396 23.7526 49.045C23.7187 48.5095 23.9053 48.3541 24.4311 48.3541C29.2315 48.3714 34.0318 48.3714 38.8322 48.3714C40.1383 48.3714 40.1383 48.3714 40.1383 47.0586C40.1383 46.5404 40.1044 46.0222 40.1553 45.504C40.2231 44.8649 39.9687 44.7268 39.375 44.7268C35.9486 44.7613 32.5222 44.744 29.0958 44.744C27.5352 44.744 25.9577 44.7268 24.3972 44.7613C23.8714 44.7786 23.7526 44.5886 23.7696 44.1049C23.8035 43.2413 23.8035 42.3776 23.7696 41.514C23.7526 40.9958 23.9222 40.8576 24.4142 40.8576C29.3841 40.8749 34.3541 40.8749 39.3241 40.8749C40.1553 40.8749 40.1553 40.8749 40.1553 40.0458C40.1553 37.0057 40.1553 33.9657 40.1553 30.9429C45.9225 30.9429 51.6897 30.9429 57.457 30.9429C57.2873 31.1329 57.1177 31.3229 56.9481 31.5129C54.0814 34.4493 51.2148 37.3685 48.3481 40.2876C48.0258 40.5985 47.7036 40.9094 47.3813 41.2031C46.9403 41.6004 46.4992 41.9976 46.5671 42.6885C46.4314 42.8613 46.4992 43.0513 46.4992 43.224C46.4823 44.0704 46.4653 44.934 46.4483 45.7804C46.2618 46.1431 46.3805 46.5404 46.3635 46.9377C46.3466 47.5768 46.4314 48.2159 46.2448 48.8377C46.143 49.2177 46.2787 49.4595 46.7367 49.3559C46.9742 49.4941 47.1777 49.2695 47.3982 49.2695C49.2302 49.2177 51.0621 49.1486 52.8941 49.1314C53.2163 49.1314 53.4708 49.0795 53.6913 48.855C54.1832 48.3541 54.6582 47.8359 55.1501 47.335C56.8802 45.5904 58.5934 43.8631 60.3236 42.1185C61.9011 40.5294 63.4617 38.9403 65.0392 37.3512C65.2257 37.4548 65.1749 37.6448 65.1749 37.8176C65.1749 46.4713 65.1918 55.1251 65.1409 63.7788C65.124 66.8189 62.4778 69.548 59.4924 69.7035C55.6759 69.8935 51.8424 69.7553 48.0089 69.7726C47.517 69.7726 47.1268 69.8935 46.7197 70.1871C44.5825 71.7244 42.4282 73.2271 40.274 74.7472C40.0365 74.5399 40.1383 74.2635 40.1383 74.0217C40.1214 69.2716 40.1214 64.5216 40.1214 59.7715L40.1383 59.737C45.3458 59.737 50.5363 59.737 55.7437 59.7542C56.2357 59.7542 56.4222 59.6333 56.3883 59.1151C56.3374 58.3379 56.3714 57.5606 56.3714 56.7833C56.3714 55.8678 56.3714 55.8678 55.5063 55.8678C50.7059 55.8678 45.9055 55.8678 41.1052 55.8678C40.8168 55.8505 40.5285 55.9024 40.2571 55.7124Z" fill="#E0A143"/>
<path d="M48.3481 40.2704C51.2148 37.3513 54.0814 34.4149 56.9481 31.4957C57.1177 31.3057 57.2873 31.1157 57.457 30.9257C57.6605 30.7357 57.8641 30.5457 58.0506 30.3557C62.5457 25.7784 67.0407 21.1838 71.5527 16.6065C73.6391 14.4819 76.6245 14.4646 78.6091 16.5374C78.4056 16.7274 78.185 16.9001 77.9985 17.0901C69.4494 25.7784 60.9173 34.484 52.3682 43.1723C52.1647 43.3795 52.012 43.6732 51.6728 43.7077C50.5363 42.585 49.3829 41.4795 48.3481 40.2704Z" fill="#5BA7B1"/>
<path d="M48.3481 40.2703C49.3828 41.4967 50.5532 42.6022 51.6897 43.7076C51.6897 43.7422 51.7067 43.7767 51.7067 43.8286C51.554 44.0013 51.4014 44.1913 51.2487 44.364C49.7899 45.8668 48.3142 47.3522 46.8554 48.855C46.7367 48.9759 46.3805 49.1141 46.7537 49.3732C46.2957 49.4941 46.16 49.235 46.2618 48.855C46.4483 48.2159 46.3635 47.5941 46.3805 46.955C46.5162 46.575 46.4823 46.195 46.4653 45.7977C46.4823 44.9513 46.4992 44.0876 46.5162 43.2413C46.618 43.0685 46.618 42.8958 46.584 42.7058C46.5162 42.0149 46.9572 41.6176 47.3982 41.2203C47.7036 40.8922 48.0258 40.5812 48.3481 40.2703Z" fill="#6B7177"/>
<path d="M46.7367 49.3386C46.3635 49.0795 46.7198 48.9586 46.8385 48.8204C48.2973 47.3177 49.773 45.8322 51.2318 44.3295C51.4014 44.1567 51.5371 43.984 51.6897 43.794C52.8941 44.8995 54.0306 46.074 55.1331 47.2831C54.6412 47.7841 54.1663 48.3022 53.6743 48.8032C53.4538 49.0277 53.1994 49.0795 52.8771 49.0795C51.0452 49.1141 49.2132 49.1832 47.3813 49.2177C47.1777 49.2523 46.9742 49.4941 46.7367 49.3386Z" fill="#42474C"/>
<path d="M40.1214 59.7542C36.7119 59.7369 33.3194 59.7369 29.91 59.7369C28.0781 59.7369 26.2291 59.7197 24.3972 59.7542C23.8714 59.7715 23.7526 59.5815 23.7696 59.0806C23.8035 58.2169 23.8035 57.3533 23.7696 56.4896C23.7526 55.9714 23.9223 55.8333 24.4142 55.8333C29.3842 55.8505 34.3541 55.8505 39.3241 55.8505C39.5955 55.8505 39.8669 55.8333 40.1553 55.8333C40.1553 57.1287 40.1553 58.4242 40.1723 59.7197C40.1383 59.7197 40.1214 59.7542 40.1214 59.7542Z" fill="#E0A143"/>
<path d="M40.1383 59.7197C40.1383 58.4243 40.1383 57.1288 40.1214 55.8333C40.1553 55.7815 40.2062 55.7469 40.2571 55.6951C40.5115 55.8851 40.8168 55.8333 41.1222 55.8333C45.9225 55.8333 50.7229 55.8333 55.5232 55.8333C56.3883 55.8333 56.3883 55.8333 56.3883 56.7488C56.3883 57.5261 56.3544 58.3033 56.4053 59.0806C56.4392 59.6161 56.2357 59.737 55.7607 59.7197C50.5533 59.7197 45.3458 59.7197 40.1383 59.7197Z" fill="#D59534"/>
<path d="M46.4483 45.7804C46.4653 46.1604 46.4823 46.5577 46.3635 46.9377C46.3974 46.5404 46.2617 46.1431 46.4483 45.7804Z" fill="#F19F2B"/>
<path d="M46.5671 42.6713C46.601 42.8613 46.601 43.034 46.4992 43.2067C46.4992 43.034 46.4314 42.844 46.5671 42.6713Z" fill="#FDA221"/>
</g>
</g>
<defs>
<filter id="filter0_d_87359_30696" x="12" y="13" width="71" height="72" filterUnits="userSpaceOnUse" color-interpolation-filters="sRGB">
<feFlood flood-opacity="0" result="BackgroundImageFix"/>
<feColorMatrix in="SourceAlpha" type="matrix" values="0 0 0 0 0 0 0 0 0 0 0 0 0 0 0 0 0 0 127 0" result="hardAlpha"/>
<feOffset dy="1"/>
<feGaussianBlur stdDeviation="1.5"/>
<feComposite in2="hardAlpha" operator="out"/>
<feColorMatrix type="matrix" values="0 0 0 0 0 0 0 0 0 0 0 0 0 0 0 0 0 0 0.2 0"/>
<feBlend mode="normal" in2="BackgroundImageFix" result="effect1_dropShadow_87359_30696"/>
<feBlend mode="normal" in="SourceGraphic" in2="effect1_dropShadow_87359_30696" result="shape"/>
</filter>
<clipPath id="clip0_87359_30696">
<rect width="65" height="66" fill="white" transform="translate(15 15)"/>
</clipPath>
</defs>
</svg>
