<svg width="50" height="50" viewBox="0 0 80 83" fill="none" xmlns="http://www.w3.org/2000/svg">
<ellipse cx="41.1856" cy="45.7501" rx="36.7947" ry="36.7947" fill="#F0F1F2"/>
<mask id="mask0_87359_26655" style="mask-type:alpha" maskUnits="userSpaceOnUse" x="0" y="0" width="80" height="83">
<path d="M77.9803 45.7501C77.9803 66.0712 61.5067 82.5448 41.1856 82.5448C20.8644 82.5448 4.3909 66.0712 4.3909 45.7501C-11.8882 19.0863 20.8644 0.4552 41.1856 0.4552C61.5067 0.4552 87.4777 20.8841 77.9803 45.7501Z" fill="#D9D9D9"/>
</mask>
<g mask="url(#mask0_87359_26655)">
<g filter="url(#filter0_d_87359_26655)">
<path d="M44.0382 84C42.088 84 40.1188 84 38.1686 84C38.0921 83.8286 37.9391 83.8667 37.8053 83.8476C35.033 83.6 32.2989 83.0285 29.6796 82.1141C23.7908 80.0757 18.7051 76.8181 14.5562 72.1508C14.8621 72.1318 15.168 72.1127 15.4739 72.0937C16.3534 72.1127 17.2329 72.1318 18.1124 72.1508C19.1066 72.1699 19.7184 71.827 19.814 71.0269C19.9861 69.5219 20.0052 68.5313 19.1448 68.017C18.9345 67.8836 18.7051 67.8455 18.4565 67.8455C17.405 67.8646 16.3725 67.7884 15.321 67.9027C14.6709 67.8836 14.0208 67.8455 13.3708 67.8265C13.4664 66.512 13.4473 65.2166 13.3899 63.9022C13.7914 63.8831 14.212 63.864 14.6135 63.8259C15.7798 63.845 16.9461 63.8831 18.0933 63.8831C19.0684 63.9022 19.6611 63.5783 19.7758 62.8163C19.967 61.4828 20.0052 60.2826 19.1831 59.7683C18.9536 59.6349 18.7051 59.5587 18.4374 59.5587C17.1564 59.5778 15.8754 59.5968 14.5944 59.6159C14.1929 59.5968 13.7723 59.5778 13.3708 59.5397C13.4281 58.2252 13.4473 56.9108 13.3708 55.6154C13.7914 55.5963 14.1929 55.5582 14.6135 55.5392C15.8945 55.6725 17.1755 55.5773 18.4565 55.5963C19.011 55.5963 19.4507 55.3677 19.6611 54.8533C20.0243 53.9199 20.0243 52.9483 19.6611 52.0149C19.4699 51.5196 19.011 51.2719 18.4565 51.2719C17.1755 51.291 15.8945 51.31 14.6135 51.3291C14.212 51.31 13.7914 51.291 13.3899 51.2719C13.409 49.9765 13.409 48.7002 13.4281 47.4048C13.8105 47.2333 14.2312 47.3476 14.6135 47.2714C15.8945 47.4048 17.1755 47.3286 18.4565 47.3286C19.1448 47.3286 19.6037 46.9666 19.7758 46.338C19.9861 45.5759 19.9861 44.7758 19.7758 44.0329C19.6037 43.4233 19.1257 43.0232 18.4565 43.0232C17.2329 43.0232 15.9901 43.0613 14.7665 43.0804C14.3076 43.0613 13.8488 43.0423 13.409 43.0232C13.4281 41.7469 13.4281 40.4515 13.4473 39.1751C13.9253 39.118 14.4224 39.2704 14.9003 39.0608C15.646 39.2513 16.4108 39.118 17.1755 39.1751C20.1199 39.3466 19.9287 38.1655 19.8905 36.2414C19.8905 36.1652 19.8905 36.108 19.8714 36.0318C19.7567 35.3651 19.164 34.8126 18.4948 34.8126C17.252 34.8126 16.0284 34.8317 14.7856 34.8507C14.3268 34.8317 13.887 34.8126 13.4281 34.7936C13.4281 33.5172 13.4473 32.2218 13.4473 30.9455C13.9444 30.9264 14.4415 30.8883 14.9195 30.8693C15.6842 30.8883 16.4299 30.9264 17.1947 30.9264C19.6419 30.9264 20.0626 30.4692 19.8905 28.0499C19.8714 27.8403 19.8331 27.6307 19.7566 27.4402C19.5081 26.9068 19.1066 26.5449 18.4948 26.5449C17.252 26.5449 16.0284 26.5639 14.7856 26.583C14.2503 26.4687 13.6576 26.6973 13.1796 26.2591C13.3708 25.84 13.4473 25.4019 13.4281 24.9256C13.409 24.1827 13.409 23.4207 13.409 22.6777C13.8679 22.6587 14.3076 22.6206 14.7665 22.6015C15.9328 22.6206 17.0991 22.6587 18.2462 22.6587C19.164 22.6587 19.7375 22.1443 19.8522 21.2871C20.0626 19.6297 19.7184 18.62 18.8007 18.3343C18.686 18.2962 18.5713 18.2771 18.4565 18.2771C17.2329 18.2962 15.9901 18.3152 14.7474 18.3343C14.2885 18.3152 13.8488 18.2962 13.3899 18.2771C13.3899 17.8771 13.3899 17.477 13.409 17.0579C13.4473 14.4862 15.3018 12.6193 17.883 12.6002C20.2346 12.5812 22.6054 12.5812 24.9571 12.5812C33.752 12.5812 42.5469 12.5812 51.3418 12.5812C51.3609 12.8669 51.38 13.1527 51.38 13.4384C51.38 16.9817 51.38 20.506 51.38 24.0493C51.38 25.078 51.8771 25.3828 52.7949 24.9447C54.1524 24.297 55.4907 23.6683 56.8291 23.0016C57.3453 22.7349 57.785 22.7539 58.3012 23.0016C59.6778 23.6874 61.0736 24.3541 62.4884 25.0018C63.2149 25.3447 63.6547 25.059 63.6929 24.2779C63.712 23.916 63.6929 23.5731 63.6929 23.2111C63.712 19.6678 63.712 16.1435 63.7311 12.6002C66.8667 12.3335 69.1802 14.41 68.989 17.8771C68.8551 20.5251 68.9698 23.1921 68.989 25.84C68.9698 26.0686 68.9698 26.3163 68.9698 26.5449C68.9698 41.042 68.9698 55.5582 68.9698 70.0553C68.9698 70.2839 68.989 70.5316 68.989 70.7602C68.9507 70.8173 68.9507 70.8935 68.8934 70.9507C63.1002 77.8278 55.7966 82.0569 46.887 83.5619C45.931 83.7333 44.9559 83.6952 44.0382 84ZM32.3181 32.3933C30.3105 33.4029 28.6854 34.8888 27.3279 36.6605C24.4982 40.3753 23.2173 44.5282 23.7144 49.1955C24.1923 53.8056 26.1616 57.6156 29.6796 60.6446C33.752 64.1688 38.5318 65.5024 43.8279 64.7213C48.6269 64.0355 52.489 61.6733 55.3377 57.749C57.8041 54.3009 58.9704 50.4909 58.6454 46.2427C58.2057 40.3372 55.4525 35.727 50.4432 32.6409C44.5927 29.0405 38.5127 29.0405 32.4519 32.2599C32.4137 32.298 32.3563 32.3552 32.3181 32.3933Z" fill="#5BA7B1"/>
<path d="M32.4519 32.2599C38.5128 29.0404 44.5927 29.0404 50.4432 32.6409C55.4525 35.727 58.2057 40.3371 58.6454 46.2427C58.9705 50.4909 57.8042 54.3009 55.3378 57.7489C55.1657 57.8061 54.9745 57.8442 54.8024 57.9394C51.8389 59.4254 48.7034 59.9778 45.4148 59.7492C44.4015 59.673 43.3882 59.5968 42.4322 59.1587C43.9044 58.4157 44.5354 57.2346 44.4971 55.5772C44.4398 52.7388 44.478 49.8813 44.478 47.0428C44.478 46.6618 44.478 46.2808 44.3824 45.9188C43.9427 44.3186 42.4131 43.2518 40.8453 43.4423C39.1055 43.6709 37.8818 44.9663 37.8818 46.6999C37.8627 49.6336 37.8818 52.5864 37.8627 55.5201C37.8627 56.1487 37.8818 56.7583 38.0921 57.3489C37.8627 57.3489 37.6906 57.2155 37.4994 57.1012C36.0081 56.1487 34.6507 55.0629 33.5226 53.6722C29.1825 48.281 28.1883 42.3374 30.5782 35.8413C31.018 34.6221 31.8019 33.5934 32.3181 32.4123C32.3563 32.3552 32.4137 32.298 32.4519 32.2599ZM37.8818 37.8987C37.8818 39.7275 39.3731 41.2135 41.2086 41.1944C43.044 41.1754 44.4971 39.6894 44.4971 37.8606C44.4971 36.0318 43.0058 34.565 41.1704 34.565C39.3349 34.6031 37.8627 36.0699 37.8818 37.8987Z" fill="#7FBEC6"/>
<path d="M42.4322 59.1396C43.3691 59.5968 44.4015 59.673 45.4148 59.7302C48.7033 59.9588 51.8389 59.4063 54.8024 57.9204C54.9745 57.8442 55.1657 57.787 55.3378 57.7299C52.489 61.6542 48.6078 64.0164 43.8279 64.7022C38.5319 65.4642 33.7711 64.1498 29.6796 60.6255C26.1808 57.5965 24.2115 53.7675 23.7144 49.1764C23.2173 44.5091 24.4983 40.3562 27.3279 36.6414C28.6854 34.8698 30.3105 33.3839 32.3181 32.3742C31.8018 33.5553 31.0371 34.584 30.5782 35.8032C28.2074 42.2993 29.1825 48.2429 33.5226 53.6341C34.6315 55.0248 36.0081 56.1106 37.4994 57.0631C37.6715 57.1774 37.8627 57.3108 38.0921 57.3108C39.1628 59.1396 40.31 59.6159 42.4322 59.1396Z" fill="#7FBEC6"/>
<path d="M51.3227 12.6002C51.6095 11.2858 51.9537 11 53.3111 11C56.1408 11 58.9705 11 61.781 11C63.062 11 63.4826 11.362 63.6929 12.5812C63.7121 16.1245 63.6929 19.6678 63.6929 23.1921C63.6929 23.554 63.7121 23.8969 63.6929 24.2589C63.6547 25.0399 63.215 25.3257 62.4884 24.9828C61.0736 24.3351 59.6779 23.6874 58.3013 23.0016C57.7851 22.7539 57.3453 22.7349 56.8291 23.0016C55.4907 23.6683 54.1333 24.316 52.7949 24.9447C51.8772 25.3828 51.3801 25.059 51.3801 24.0493C51.3801 20.506 51.3801 16.9817 51.3801 13.4384C51.361 13.1527 51.3418 12.8669 51.3227 12.6002Z" fill="#3C8B96"/>
<path d="M14.7474 18.3343C15.9902 18.3153 17.2138 18.2962 18.4566 18.2772C18.5713 18.2772 18.686 18.2962 18.8007 18.3343C19.7184 18.6201 20.0626 19.6488 19.8523 21.2871C19.7376 22.1443 19.1449 22.6587 18.2463 22.6587C17.08 22.6587 15.9137 22.6206 14.7665 22.6015C13.6576 21.2109 13.6576 19.8202 14.7474 18.3343Z" fill="#7FBEC6"/>
<path d="M14.7474 26.6021C15.9902 26.583 17.2138 26.564 18.4566 26.564C19.0684 26.564 19.4699 26.9259 19.7184 27.4593C19.7949 27.6498 19.8523 27.8594 19.8523 28.0689C20.0435 30.4692 19.6037 30.9455 17.1564 30.9455C16.3917 30.9455 15.646 30.9074 14.8812 30.8883C14.4989 30.5454 14.0209 30.2406 14.0018 29.6501C13.9826 28.5642 13.7914 27.4403 14.7474 26.6021Z" fill="#7FBEC6"/>
<path d="M14.7474 34.8698C15.9902 34.8507 17.2138 34.8126 18.4566 34.8317C19.1258 34.8317 19.7185 35.3841 19.8332 36.0509C19.8523 36.1271 19.8523 36.1842 19.8523 36.2604C19.8905 38.2035 20.0817 39.3656 17.1373 39.1941C16.3726 39.156 15.6078 39.2703 14.8621 39.0798C13.6576 38.1273 13.6003 36.1271 14.7474 34.8698Z" fill="#7FBEC6"/>
<path d="M14.6136 51.3863C15.8946 51.3672 17.1756 51.3482 18.4566 51.3291C19.011 51.3291 19.4699 51.5768 19.6611 52.0721C20.0243 53.0055 20.0243 53.9771 19.6611 54.9105C19.4699 55.4249 19.011 55.6535 18.4566 55.6535C17.1756 55.6344 15.8946 55.7106 14.6136 55.5963C13.6767 54.1866 13.715 52.796 14.6136 51.3863Z" fill="#7FBEC6"/>
<path d="M14.6136 59.654C15.8946 59.635 17.1756 59.6159 18.4566 59.5969C18.7242 59.5969 18.9728 59.654 19.2022 59.8064C20.0052 60.3208 19.9861 61.5209 19.7949 62.8544C19.6802 63.6164 19.0875 63.9403 18.1124 63.9212C16.9461 63.9022 15.7798 63.8831 14.6327 63.8641C13.715 62.4544 13.6767 61.0637 14.6136 59.654Z" fill="#7FBEC6"/>
<path d="M14.7474 43.1185C15.9711 43.0994 17.2138 43.0613 18.4375 43.0613C19.1066 43.0613 19.5846 43.4614 19.7567 44.071C19.967 44.833 19.9479 45.6141 19.7567 46.3761C19.5846 47.0047 19.1258 47.3667 18.4375 47.3667C17.1565 47.3476 15.8755 47.4429 14.5945 47.3095C13.6576 45.8236 13.715 44.2615 14.7474 43.1185Z" fill="#7FBEC6"/>
<path d="M15.321 67.9217C16.3534 67.8074 17.405 67.8646 18.4566 67.8646C18.7051 67.8646 18.9345 67.9027 19.1448 68.036C20.0052 68.5504 19.967 69.541 19.814 71.0459C19.7184 71.846 19.1066 72.1889 18.1124 72.1699C17.2329 72.1508 16.3534 72.1318 15.4739 72.1127C15.1298 71.7317 14.7474 71.3698 14.7283 70.7983C14.69 69.7886 14.5944 68.779 15.321 67.9217Z" fill="#7FBEC6"/>
<path d="M14.7474 26.602C13.7723 27.4402 13.9635 28.5642 14.0017 29.6501C14.0209 30.2406 14.4988 30.5264 14.8812 30.8883C14.3841 30.9074 13.887 30.9455 13.409 30.9645C13.237 30.9645 13.084 30.9455 12.9119 30.9455C11.5927 30.9264 11.2294 30.5645 11 29.1357C11.0191 28.8118 11.0382 28.4689 11.0574 28.1451C11.1147 27.1735 11.5736 26.6592 12.5487 26.583C12.7972 26.5639 13.0267 26.5449 13.1605 26.3163C13.6194 26.7163 14.2312 26.4877 14.7474 26.602Z" fill="#3C8B96"/>
<path d="M14.7474 34.8698C13.5811 36.1271 13.6385 38.1273 14.8621 39.0989C14.4032 39.3084 13.887 39.156 13.409 39.2132C13.1987 39.1941 12.9884 39.1941 12.759 39.1751C11.5927 39.1179 11.0765 38.6226 11.0382 37.4606C11.0382 37.3653 11.0382 37.2701 11.0382 37.1748C11.0382 35.1365 11.3441 34.8126 13.3708 34.8126C13.8488 34.8317 14.3076 34.8507 14.7474 34.8698Z" fill="#3C8B96"/>
<path d="M14.7474 18.3343C13.6576 19.8012 13.6576 21.2109 14.7474 22.6206C14.2886 22.6396 13.8488 22.6777 13.3899 22.6968C13.1223 22.6968 12.8737 22.6777 12.6061 22.6777C11.6501 22.6206 11.1147 22.1062 11.0574 21.1728C11.0383 21.0013 11.0574 20.8489 11.0574 20.6775C11.0574 18.6391 11.3442 18.3534 13.3899 18.2962C13.8488 18.2962 14.3077 18.3153 14.7474 18.3343Z" fill="#3C8B96"/>
<path d="M14.7474 43.1185C13.715 44.2425 13.6576 45.8236 14.5945 47.3095C14.193 47.3857 13.7915 47.2714 13.4091 47.4429C11.3251 47.2714 11.0574 47.0238 11.0574 45.3474C11.0574 43.3662 11.3824 43.0423 13.39 43.0423C13.8488 43.0804 14.2886 43.0994 14.7474 43.1185Z" fill="#3C8B96"/>
<path d="M14.6136 51.3863C13.715 52.7769 13.6768 54.1866 14.6136 55.5773C14.193 55.5963 13.7915 55.6344 13.3708 55.6535C12.9693 55.6344 12.5678 55.6916 12.1663 55.6154C11.3442 55.463 11.0574 54.8343 11.0574 53.3865C11.0574 52.1483 11.3824 51.5196 12.1854 51.3672C12.5678 51.291 12.9885 51.3291 13.39 51.3291C13.7915 51.3482 14.2121 51.3672 14.6136 51.3863Z" fill="#3C8B96"/>
<path d="M14.6136 59.654C13.6767 61.0447 13.7341 62.4544 14.6136 63.845C14.2121 63.8641 13.7914 63.8831 13.3899 63.9212C13.0649 63.9212 12.7208 63.9403 12.3957 63.9022C11.3633 63.7879 11.0382 63.1592 11.0765 61.3685C11.0956 60.2445 11.5545 59.654 12.4722 59.5968C12.7781 59.5778 13.084 59.5968 13.3899 59.5968C13.7914 59.6159 14.1929 59.6349 14.6136 59.654Z" fill="#3C8B96"/>
<path d="M15.321 67.9217C14.5945 68.779 14.6709 69.7886 14.7092 70.7983C14.7283 71.3698 15.1107 71.7318 15.4548 72.1128C15.1489 72.1318 14.843 72.1509 14.5371 72.1699C13.3708 70.9888 12.3957 69.6553 11.4971 68.2837C12.0134 67.7122 12.7017 67.8455 13.3517 67.8455C14.0209 67.8646 14.6709 67.9027 15.321 67.9217Z" fill="#3C8B96"/>
<path d="M32.4519 32.2599C32.3946 32.298 32.3563 32.3551 32.299 32.3932C32.3563 32.3551 32.4137 32.298 32.4519 32.2599Z" fill="#059AC2"/>
<path d="M42.4322 59.1396C40.2909 59.6159 39.1628 59.1396 38.0921 57.3299C37.9009 56.7393 37.8627 56.1297 37.8627 55.501C37.8818 52.5673 37.8627 49.6146 37.8818 46.6808C37.9009 44.9473 39.1055 43.6328 40.8453 43.4233C42.4131 43.2328 43.9427 44.2996 44.3824 45.8998C44.478 46.2808 44.478 46.6427 44.478 47.0238C44.478 49.8622 44.4398 52.7197 44.4971 55.5582C44.5354 57.2156 43.9044 58.3967 42.4322 59.1396Z" fill="#FDFEFD"/>
<path d="M37.8818 37.8988C37.8818 36.0509 39.3349 34.584 41.1703 34.584C43.0058 34.565 44.478 36.0509 44.4971 37.8797C44.4971 39.7085 43.044 41.1944 41.2086 41.2135C39.3731 41.2135 37.8818 39.7276 37.8818 37.8988Z" fill="#FDFEFD"/>
</g>
</g>
<defs>
<filter id="filter0_d_87359_26655" x="8" y="9" width="64" height="79" filterUnits="userSpaceOnUse" color-interpolation-filters="sRGB">
<feFlood flood-opacity="0" result="BackgroundImageFix"/>
<feColorMatrix in="SourceAlpha" type="matrix" values="0 0 0 0 0 0 0 0 0 0 0 0 0 0 0 0 0 0 127 0" result="hardAlpha"/>
<feOffset dy="1"/>
<feGaussianBlur stdDeviation="1.5"/>
<feComposite in2="hardAlpha" operator="out"/>
<feColorMatrix type="matrix" values="0 0 0 0 0 0 0 0 0 0 0 0 0 0 0 0 0 0 0.2 0"/>
<feBlend mode="normal" in2="BackgroundImageFix" result="effect1_dropShadow_87359_26655"/>
<feBlend mode="normal" in="SourceGraphic" in2="effect1_dropShadow_87359_26655" result="shape"/>
</filter>
</defs>
</svg>
