<svg width="50" height="50" viewBox="0 0 81 83" fill="none" xmlns="http://www.w3.org/2000/svg">
<ellipse cx="41.539" cy="45.7501" rx="36.7947" ry="36.7947" fill="#F0F1F2"/>
<mask id="mask0_87359_29673" style="mask-type:alpha" maskUnits="userSpaceOnUse" x="0" y="0" width="81" height="83">
<path d="M78.3337 45.7501C78.3337 66.0712 61.8602 82.5448 41.5391 82.5448C21.2179 82.5448 4.74435 66.0712 4.74435 45.7501C-11.5348 19.0863 21.2179 0.4552 41.5391 0.4552C61.8602 0.4552 87.8312 20.8841 78.3337 45.7501Z" fill="#D9D9D9"/>
</mask>
<g mask="url(#mask0_87359_29673)">
<g filter="url(#filter0_d_87359_29673)">
<path d="M18.5603 60.2277C17.9841 60.1557 17.8581 60.4257 17.8581 60.9837C17.8761 66.9418 17.8581 72.8999 17.8761 78.858C17.8761 79.47 17.75 79.686 17.1019 79.668C15.3374 79.614 13.5549 79.632 11.7905 79.668C11.2143 79.686 11.0703 79.506 11.0703 78.948C11.0883 70.0199 11.0883 61.0917 11.0883 52.1635C11.0883 50.2735 11.0703 48.3834 11.1063 46.4934C11.1063 45.9534 11.0523 45.7014 10.3861 45.6834C9.68391 45.6654 9.6299 45.9534 9.6299 46.5294C9.6479 50.5435 9.6479 54.5756 9.6479 58.5896C9.6479 59.6337 9.2518 60.4617 8.29755 60.9477C7.43332 61.3797 6.5871 61.2897 5.77688 60.7497C5.27275 60.4257 5.0747 59.8677 4.76862 59.3996C4.76862 52.1275 4.76862 44.8374 4.76862 37.5652C5.18273 36.5212 5.63284 35.5132 6.5871 34.8112C7.30729 34.2712 8.1175 33.8571 9.01774 33.8571C12.2046 33.8211 15.3914 33.8391 18.5783 33.8571C18.5423 42.6233 18.5423 51.4255 18.5603 60.2277Z" fill="#E9AF58"/>
<path d="M43.6949 6.08258C43.6949 8.17062 43.6769 10.2407 43.7129 12.3287C43.7129 12.7607 43.6049 12.9227 43.1548 12.9047C42.0565 12.8507 40.9582 12.8327 39.8599 12.8507C39.3558 12.8507 39.4098 12.5807 39.4098 12.2567C39.4098 10.2047 39.3918 8.13462 39.3918 6.08258C40.8142 6.08258 42.2545 6.08258 43.6949 6.08258Z" fill="#DE6A5A"/>
<path d="M64.4004 33.8211C65.8408 33.6951 67.2632 33.7851 68.7035 33.7671C70.45 33.7491 72.1964 33.7311 73.9429 33.8031C76.3736 33.9111 78.3001 35.9092 78.3181 38.3572C78.3361 45.1614 78.3361 51.9475 78.3181 58.7516C78.3181 60.1377 77.1838 61.2357 75.8514 61.2177C74.5191 61.1997 73.4388 60.1017 73.4388 58.6976C73.4208 54.6295 73.4208 50.5615 73.4388 46.4934C73.4388 45.8994 73.3668 45.6654 72.6826 45.6654C72.0164 45.6654 71.9804 45.9354 71.9804 46.4754C71.9984 57.2396 71.9804 68.0218 71.9984 78.786C71.9984 79.47 71.8544 79.668 71.1522 79.65C69.3877 79.596 67.6052 79.614 65.8408 79.65C65.2646 79.668 65.1206 79.488 65.1386 78.93C65.1566 72.9719 65.1386 67.0138 65.1746 61.0557C65.1746 60.4617 65.0486 60.1557 64.4184 60.2097C64.4004 51.4255 64.4004 42.6233 64.4004 33.8211Z" fill="#5BA7B1"/>
<path d="M18.5602 60.2277C18.5602 51.4255 18.5602 42.6233 18.5602 33.8212C19.1004 33.6412 19.6585 33.7492 20.1987 33.7312C22.1792 33.7132 24.1597 33.7132 26.1582 33.7312C26.6444 33.7312 26.9325 33.5871 27.1845 33.1551C30.3894 27.989 33.6122 22.8229 36.8531 17.6568C37.5913 16.4868 38.5095 16.0368 39.6618 16.2888C40.6521 16.5048 41.1742 17.2068 41.5523 18.0708C41.5523 18.4669 41.5523 18.8449 41.5523 19.2409C39.9139 22.2469 38.0054 25.073 36.2049 27.971C32.982 33.1911 29.7232 38.3932 26.4463 43.6133C26.2123 43.9914 26.1582 44.3514 26.1582 44.7654C26.1582 56.1056 26.1582 67.4458 26.1763 78.804C26.1763 79.506 25.9962 79.6861 25.312 79.6501C23.5476 79.5961 21.7651 79.6141 20.0006 79.6501C19.4245 79.6681 19.2804 79.488 19.2984 78.93C19.3164 72.9719 19.2984 67.0138 19.3344 61.0557C19.3164 60.4437 19.1724 60.1737 18.5602 60.2277Z" fill="#E0A143"/>
<path d="M41.5524 19.2589C41.5524 18.8629 41.5524 18.4849 41.5524 18.0889C41.8404 17.6749 41.9845 17.1888 42.3986 16.8648C43.6409 15.8568 45.2253 16.1088 46.1076 17.5129C48.0341 20.5369 49.9246 23.597 51.8151 26.639C53.1834 28.8351 54.5698 31.0131 55.9202 33.2092C56.2082 33.6952 56.5503 33.8212 57.0905 33.8212C59.5391 33.8032 61.9698 33.8212 64.4184 33.8392C64.4184 42.6413 64.4184 51.4255 64.4184 60.2277C63.8242 60.1737 63.6802 60.4437 63.6802 61.0197C63.6982 66.9598 63.6802 72.8819 63.7162 78.822C63.7162 79.4701 63.5722 79.6861 62.888 79.6681C61.1595 79.6141 59.4491 79.6321 57.7206 79.6681C57.1085 79.6861 56.9104 79.5421 56.9104 78.876C56.9464 74.61 56.9284 70.3619 56.9284 66.0958C56.9284 58.9857 56.9284 51.8755 56.9284 44.7834C56.9284 44.2794 56.8204 43.8654 56.5503 43.4514C51.689 35.6752 46.8278 27.8811 41.9665 20.0869C41.8044 19.8169 41.6784 19.5289 41.5524 19.2589Z" fill="#7FBEC6"/>
<path d="M64.4004 16.3069C67.1911 16.1089 70.1619 18.1609 71.2062 20.861C72.9346 25.3071 69.9459 30.2572 64.9946 30.7432C64.8145 30.7612 64.6164 30.7252 64.4184 30.7252C64.4184 25.9191 64.4184 21.113 64.4004 16.3069Z" fill="#5BA7B1"/>
<path d="M18.7043 30.7431C14.5632 30.6531 11.3403 27.413 11.3763 23.3809C11.4123 19.4749 14.7612 16.2348 18.6863 16.2888C18.6863 21.1129 18.6863 25.919 18.7043 30.7431Z" fill="#E9AF58"/>
<path d="M18.7043 30.7431C18.7043 25.919 18.7043 21.0949 18.7043 16.2888C22.6473 16.2168 25.9062 19.5469 25.8882 23.6509C25.8522 27.467 22.4313 30.8511 18.7043 30.7431Z" fill="#E0A143"/>
<path d="M64.4003 16.3068C64.4003 21.1129 64.4183 25.919 64.4183 30.7251C59.179 30.7971 55.542 24.983 57.9546 20.3389C59.323 17.7469 61.4476 16.3608 64.4003 16.3068Z" fill="#7FBEC6"/>
<path d="M52.4452 8.76467C52.3732 8.90867 52.3372 9.01667 52.2832 9.12467C51.491 10.8527 50.6808 12.5987 49.8886 14.3448C49.7085 14.7228 49.5825 14.8308 49.1684 14.6328C48.1781 14.1468 47.1698 13.6968 46.1796 13.2648C45.8375 13.1208 45.7835 12.9587 45.9455 12.6167C46.7737 10.8527 47.5839 9.05267 48.3942 7.27064C48.5022 7.01863 48.6102 6.87463 48.9163 7.01863C49.9966 7.52264 51.0769 8.02665 52.1752 8.51266C52.3192 8.58466 52.4452 8.63866 52.4452 8.76467Z" fill="#DE6A5A"/>
<path d="M37.1952 12.8328C37.2672 13.1028 37.0692 13.1568 36.9431 13.2108C35.8808 13.6968 34.8186 14.1828 33.7563 14.6688C33.5042 14.7948 33.3782 14.7228 33.2701 14.4708C32.4419 12.6528 31.6137 10.8167 30.7675 8.99868C30.6595 8.76468 30.6415 8.63867 30.9295 8.51267C31.9918 8.04466 33.0721 7.55865 34.1164 7.05464C34.3864 6.92864 34.5305 6.94664 34.6565 7.23465C35.4667 9.03468 36.2949 10.8347 37.1232 12.6348C37.1412 12.7248 37.1772 12.7968 37.1952 12.8328Z" fill="#DE6A5A"/>
</g>
</g>
<defs>
<filter id="filter0_d_87359_29673" x="1.76862" y="4.08258" width="79.5629" height="79.5869" filterUnits="userSpaceOnUse" color-interpolation-filters="sRGB">
<feFlood flood-opacity="0" result="BackgroundImageFix"/>
<feColorMatrix in="SourceAlpha" type="matrix" values="0 0 0 0 0 0 0 0 0 0 0 0 0 0 0 0 0 0 127 0" result="hardAlpha"/>
<feOffset dy="1"/>
<feGaussianBlur stdDeviation="1.5"/>
<feComposite in2="hardAlpha" operator="out"/>
<feColorMatrix type="matrix" values="0 0 0 0 0 0 0 0 0 0 0 0 0 0 0 0 0 0 0.2 0"/>
<feBlend mode="normal" in2="BackgroundImageFix" result="effect1_dropShadow_87359_29673"/>
<feBlend mode="normal" in="SourceGraphic" in2="effect1_dropShadow_87359_29673" result="shape"/>
</filter>
</defs>
</svg>
